<?xml version="1.0" encoding="utf-8"?>
<!-- Generator: Adobe Illustrator 26.0.1, SVG Export Plug-In . SVG Version: 6.00 Build 0)  -->
<svg version="1.1" id="Layer_1" xmlns="http://www.w3.org/2000/svg" xmlns:xlink="http://www.w3.org/1999/xlink" x="0px" y="0px"
	 viewBox="0 0 1920 1080" style="enable-background:new 0 0 1920 1080;" xml:space="preserve">
<polygon points="496.9,599.6 496.9,269.6 961.1,3.5 1423.1,269.6 1423.1,329.2 1186.7,467.6 960,339.9 837.6,410.1 1229.3,640.1 
	1227.2,691.2 960,848.7 741.8,718.8 643.8,780.6 960,967.9 1327.2,755 1329.4,492.5 1423.1,442.1 1423.1,808.2 960,1076.5 
	496.9,808.2 496.9,755 739.7,608.1 960,740.1 1084.5,667.7 692.8,442.1 694.9,384.6 960,233.4 1178.2,359 1282.5,299.4 960,114.2 
	592.8,325 592.8,540 "/>
</svg>
