<?xml version="1.0" encoding="utf-8"?>
<!-- Generator: Adobe Illustrator 26.0.1, SVG Export Plug-In . SVG Version: 6.00 Build 0)  -->
<svg version="1.1" id="Layer_1" xmlns="http://www.w3.org/2000/svg" xmlns:xlink="http://www.w3.org/1999/xlink" x="0px" y="0px"
	 viewBox="0 0 1920 1080" style="enable-background:new 0 0 1920 1080;" xml:space="preserve">
<style type="text/css">
	.st0{fill:#FFFFFF;}
</style>
<polygon class="st0" points="501.1,598.6 501.1,271.6 960.9,8 1418.6,271.6 1418.6,330.7 1184.5,467.8 959.8,341.2 838.6,410.8 
	1226.6,638.6 1224.5,689.2 959.8,845.3 743.7,716.7 646.6,777.8 959.8,963.4 1323.7,752.5 1325.8,492.4 1418.6,442.5 1418.6,805.2 
	959.8,1071 501.1,805.2 501.1,752.5 741.5,607 959.8,737.8 1083.2,666 695.1,442.5 697.3,385.5 959.8,235.8 1176,360.2 
	1279.4,301.2 959.8,117.7 596,326.5 596,539.5 "/>
</svg>
